<svg width="27" height="27" viewBox="0 0 27 27" fill="none" xmlns="http://www.w3.org/2000/svg">
<path d="M15 2C15 1.17157 14.3284 0.5 13.5 0.5C12.6716 0.5 12 1.17157 12 2L15 2ZM12.4393 24.7829C13.0251 25.3687 13.9749 25.3687 14.5607 24.7829L24.1066 15.2369C24.6924 14.6512 24.6924 13.7014 24.1066 13.1156C23.5208 12.5298 22.5711 12.5298 21.9853 13.1156L13.5 21.6009L5.01472 13.1156C4.42893 12.5298 3.47918 12.5298 2.8934 13.1156C2.30761 13.7014 2.30761 14.6512 2.8934 15.2369L12.4393 24.7829ZM12 2L12 23.7222L15 23.7222L15 2L12 2Z" fill="#D9D9D9"/>
<path d="M2 24.6806H25" stroke="#D9D9D9" stroke-width="3" stroke-linecap="round"/>
</svg>
