<svg width="27" height="27" viewBox="0 0 27 27" fill="none" xmlns="http://www.w3.org/2000/svg">
<path d="M12 25C12 25.8284 12.6716 26.5 13.5 26.5C14.3284 26.5 15 25.8284 15 25L12 25ZM14.5607 2.21712C13.9749 1.63133 13.0251 1.63133 12.4393 2.21712L2.8934 11.7631C2.30761 12.3488 2.30761 13.2986 2.8934 13.8844C3.47918 14.4702 4.42893 14.4702 5.01472 13.8844L13.5 5.3991L21.9853 13.8844C22.5711 14.4702 23.5208 14.4702 24.1066 13.8844C24.6924 13.2986 24.6924 12.3488 24.1066 11.7631L14.5607 2.21712ZM15 25L15 3.27778L12 3.27778L12 25L15 25Z" fill="#D9D9D9"/>
<path d="M2 2H25" stroke="#D9D9D9" stroke-width="3" stroke-linecap="round"/>
</svg>
